<?xml version="1.0" encoding="UTF-8"?>
<svg version="1.1" xmlns="http://www.w3.org/2000/svg" width="800" height="295">
<path d="M0 0 C19.14 0 38.28 0 58 0 C59.98 3.3 61.96 6.6 64 10 C65.23366765 12.04027887 66.46906398 14.07951462 67.70703125 16.1171875 C68.69703125 17.74720703 68.69703125 17.74720703 69.70703125 19.41015625 C70.40885199 20.56510549 71.11067497 21.72005337 71.8125 22.875 C72.55992434 24.10545143 73.30731953 25.33592057 74.0546875 26.56640625 C75.60226431 29.11432586 77.14996451 31.66217046 78.69775391 34.20996094 C81.94914777 39.5622423 85.19897691 44.91547345 88.44885254 50.26867676 C89.50582392 52.00959246 90.56294906 53.75041471 91.62011719 55.49121094 C94.81969056 60.76003716 98.01842593 66.02936337 101.21307373 71.30117798 C108.56406643 83.43167606 115.93617875 95.54810516 123.375 107.625 C124.36125366 109.22722412 124.36125366 109.22722412 125.36743164 110.86181641 C128.38611499 115.76399078 131.41008475 120.66273888 134.4453125 125.5546875 C135.46361379 127.20308045 136.48184776 128.85151499 137.5 130.5 C137.96325684 131.2420166 138.42651367 131.9840332 138.90380859 132.74853516 C142 137.77365984 142 137.77365984 142 140 C142.66 140 143.32 140 144 140 C144.25007812 139.32066406 144.50015625 138.64132813 144.7578125 137.94140625 C146.22695733 134.46258218 148.01129888 131.21473288 149.875 127.9375 C150.46982178 126.8865918 150.46982178 126.8865918 151.07666016 125.81445312 C155.08864869 118.77066902 159.27021425 111.83133423 163.45703125 104.890625 C167.69211132 97.863493 171.87633104 90.80632893 176.0625 83.75 C176.87701064 82.37767138 177.69154531 81.00535703 178.50610352 79.63305664 C182.24766996 73.32873926 185.98693381 67.0230655 189.72227478 60.71505737 C191.35092625 57.96501582 192.98037178 55.21544553 194.61013794 52.46606445 C195.40844702 51.11919775 196.20652432 49.77219364 197.00436401 48.42504883 C201.04974796 41.59649676 205.11379687 34.78162311 209.26953125 28.01953125 C209.92397217 26.95355713 210.57841309 25.88758301 211.25268555 24.78930664 C212.46392233 22.82311981 213.67992047 20.85985479 214.90161133 18.90014648 C215.43165771 18.04106689 215.9617041 17.1819873 216.5078125 16.296875 C216.96816895 15.55791992 217.42852539 14.81896484 217.90283203 14.05761719 C218.98313484 12.03162875 219.55396022 10.24348519 220 8 C220.66 8 221.32 8 222 8 C222.28875 7.05125 222.5775 6.1025 222.875 5.125 C224 2 224 2 226 0 C245.47 0 264.94 0 285 0 C285 80.85 285 161.7 285 245 C263.55 245 242.1 245 220 245 C219.93941406 236.13253906 219.87882813 227.26507813 219.81640625 218.12890625 C219.77079271 211.8162847 219.72455589 205.50367014 219.67741489 199.19106007 C219.61635168 191.0029602 219.55678413 182.81485814 219.50268555 174.62670898 C219.45986426 168.1461565 219.41359157 161.66563958 219.36312145 155.18514198 C219.33650387 151.75171548 219.31165047 148.31829611 219.29092598 144.88482857 C219.26776274 141.05801819 219.23689601 137.23129173 219.20532227 133.40454102 C219.1995668 132.25799545 219.19381134 131.11144989 219.18788147 129.93016052 C219.17319824 128.3756871 219.17319824 128.3756871 219.15821838 126.78981018 C219.15176583 125.88368768 219.14531328 124.97756517 219.1386652 124.04398441 C219.22548604 122.00627782 219.22548604 122.00627782 218 121 C217.54786133 121.77375977 217.09572266 122.54751953 216.62988281 123.34472656 C201.12646376 149.86476676 201.12646376 149.86476676 193.74121094 162.10620117 C190.21029777 167.96473885 186.71510324 173.84359881 183.24438477 179.73796082 C181.17313117 183.25180073 179.08536552 186.7534372 176.95800781 190.23364258 C173.36243184 196.13913749 169.92145381 201.86906041 167.2734375 208.27734375 C162.99463044 218.02525687 162.99463044 218.02525687 158 221 C147.35592325 224.08701568 135.64027788 224.13205359 125 221 C119.63936679 217.6797105 117.97645239 212.28615487 116.00390625 206.56201172 C114.20595703 201.97356834 111.42513654 197.99238744 108.75 193.875 C107.63261937 192.087191 106.51939193 190.29678011 105.41015625 188.50390625 C104.84828613 187.59914551 104.28641602 186.69438477 103.70751953 185.76220703 C100.84248709 181.12752344 98.01512369 176.47006882 95.1875 171.8125 C89.3318306 162.16918238 83.42978386 152.55506731 77.50463867 142.9543457 C76.87404541 141.93171631 76.24345215 140.90908691 75.59375 139.85546875 C75.04396484 138.96496826 74.49417969 138.07446777 73.92773438 137.15698242 C71.25922081 132.78685212 68.62982318 128.39349216 66 124 C64.88249475 148.33531786 64.69349091 172.67737309 64.46777344 197.03387451 C64.40766361 203.41969519 64.34208601 209.805462 64.27747345 216.1912384 C64.18089743 225.79412488 64.09106911 235.39705264 64 245 C42.88 245 21.76 245 0 245 C0 164.15 0 83.3 0 0 Z " fill="#38BFC0" transform="translate(502,29)"/>
<path d="M0 0 C21.65625 -0.0825 43.3125 -0.165 65.625 -0.25 C72.4204541 -0.28641602 79.2159082 -0.32283203 86.21728516 -0.36035156 C94.6237793 -0.37841797 94.6237793 -0.37841797 98.58016968 -0.3817749 C101.29785101 -0.38785027 104.01474272 -0.40021316 106.73226929 -0.42230225 C123.55188136 -0.55317443 139.54848749 0.17716659 156 4 C156 4.66 156 5.32 156 6 C157.299375 6.144375 158.59875 6.28875 159.9375 6.4375 C168.31403313 8.04511747 175.6529533 12.85769757 183 17 C183 17.66 183 18.32 183 19 C183.886875 19.226875 184.77375 19.45375 185.6875 19.6875 C189.49627112 21.19663573 191.23265515 23.01978247 194 26 C195.2065625 26.8971875 195.2065625 26.8971875 196.4375 27.8125 C199.88126474 30.75229916 202.58682706 34.16877699 205 38 C205 38.66 205 39.32 205 40 C205.66 40 206.32 40 207 40 C212.17307447 49.05559158 216.71669258 57.29921947 218.5625 67.65625 C218.76226605 69.95071546 218.76226605 69.95071546 220 71 C220.29655878 76.26448136 220.314599 81.53216921 220.35009766 86.80419922 C220.36643586 88.57288982 220.39342057 90.34152083 220.43212891 92.10986328 C220.77670571 107.95140725 218.81957769 122.41968142 210 136 C209.443125 137.010625 208.88625 138.02125 208.3125 139.0625 C207.879375 139.701875 207.44625 140.34125 207 141 C206.34 141 205.68 141 205 141 C204.8453125 141.9590625 204.8453125 141.9590625 204.6875 142.9375 C204.460625 143.618125 204.23375 144.29875 204 145 C203.01 145.33 202.02 145.66 201 146 C199.62665383 148.28891028 198.84749184 150.45752447 198 153 C196.7934375 153.433125 196.7934375 153.433125 195.5625 153.875 C194.716875 154.24625 193.87125 154.6175 193 155 C192.71640625 155.78375 192.4328125 156.5675 192.140625 157.375 C190.70982973 160.66778911 189.2997719 161.41721662 186.1875 163.125 C185.33542969 163.60195312 184.48335937 164.07890625 183.60546875 164.5703125 C182.31576172 165.27800781 182.31576172 165.27800781 181 166 C180.10925781 166.55429688 179.21851563 167.10859375 178.30078125 167.6796875 C176 169 176 169 174 169 C179.96236148 178.42200332 186.14980683 187.66003822 192.49804688 196.82568359 C195.17946429 200.70746245 197.83856869 204.60450378 200.5 208.5 C203.66468132 213.13182345 206.83151681 217.76188971 210.0234375 222.375 C210.50490234 223.07173828 210.98636719 223.76847656 211.48242188 224.48632812 C212.36480979 225.76226353 213.24873636 227.03713738 214.13476562 228.31054688 C216.7319591 232.06845122 219.21676383 235.8870218 221.66455078 239.74414062 C222.29048126 240.72983032 222.91641174 241.71552002 223.56130981 242.7310791 C224.03607758 243.479823 224.51084534 244.22856689 225 245 C215.31682112 245.44250419 205.63717171 245.77888027 195.94604969 245.98443127 C191.44418004 246.0831589 186.94927415 246.21666087 182.45141602 246.43334961 C153.47853114 247.79301135 153.47853114 247.79301135 146.15197754 243.22384644 C141.80127963 238.95824732 139.33005902 234.12466917 137.10691833 228.51231384 C135.20186559 224.18851666 132.39030177 220.49611736 129.625 216.6875 C124.68074163 209.46294182 119.74479492 202.23273053 114.8125 195 C113.84014404 193.57433716 113.84014404 193.57433716 112.84814453 192.11987305 C112.24470215 191.23468994 111.64125977 190.34950684 111.01953125 189.4375 C110.21672729 188.25994141 110.21672729 188.25994141 109.39770508 187.05859375 C108.25670726 185.37808832 107.12673449 183.69010174 106 182 C103.23574651 181.7334347 100.69199895 181.65176181 97.9296875 181.70703125 C97.22400635 181.71005249 96.5183252 181.71307373 95.79125977 181.71618652 C93.15235798 181.73189596 90.51366447 181.77378009 87.875 181.8125 C81.97625 181.874375 76.0775 181.93625 70 182 C70 202.79 70 223.58 70 245 C46.9 245 23.8 245 0 245 C0 164.15 0 83.3 0 0 Z M70 57 C69.67 79.77 69.34 102.54 69 126 C76.816875 126.103125 84.63375 126.20625 92.6875 126.3125 C96.34718872 126.38078003 96.34718872 126.38078003 100.08081055 126.45043945 C114.67575988 126.60957213 125.82568762 125.61662761 137.70703125 116.33203125 C139.23216908 115.07021021 139.23216908 115.07021021 139 113 C140.32 112.67 141.64 112.34 143 112 C143.33 110.35 143.66 108.7 144 107 C144.66 107 145.32 107 146 107 C149.07916441 96.41537233 150.19032373 83.24746374 145.265625 73.0859375 C142.35552652 68.28966408 139.87384782 64.79812037 134.625 62.5625 C133.75875 62.376875 132.8925 62.19125 132 62 C132 61.34 132 60.68 132 60 C131.07316406 59.79503906 130.14632812 59.59007812 129.19140625 59.37890625 C127.99386719 59.10949219 126.79632813 58.84007812 125.5625 58.5625 C123.77005859 58.16224609 123.77005859 58.16224609 121.94140625 57.75390625 C119 57 119 57 118 56 C116.63980137 55.9020705 115.2746073 55.87201934 113.91088867 55.87060547 C113.04296188 55.86745331 112.1750351 55.86430115 111.2808075 55.86105347 C109.86370232 55.86408981 109.86370232 55.86408981 108.41796875 55.8671875 C107.45224442 55.86623077 106.48652008 55.86527405 105.49153137 55.86428833 C103.44283992 55.86360622 101.39414632 55.86546263 99.34545898 55.86962891 C96.2113761 55.87495939 93.07743767 55.86969394 89.94335938 55.86328125 C87.95572885 55.86394237 85.96809842 55.86522423 83.98046875 55.8671875 C83.04180466 55.86516327 82.10314056 55.86313904 81.1360321 55.86105347 C80.25864883 55.86420563 79.38126556 55.86735779 78.47729492 55.87060547 C77.32265999 55.87179886 77.32265999 55.87179886 76.1446991 55.87301636 C73.66140166 55.95376963 73.66140166 55.95376963 70 57 Z " fill="#01A6E5" transform="translate(262,29)"/>
<path d="M0 0 C1.24617599 -0.00428513 2.49235199 -0.00857025 3.77629089 -0.01298523 C7.07111832 -0.02016289 10.36576089 -0.01713044 13.6605835 -0.01141357 C16.98147688 -0.01191844 20.30222987 -0.03945257 23.62304688 -0.06054688 C26.18619699 -0.06282071 28.74934908 -0.06352297 31.3125 -0.0625 C32.49101028 -0.07170975 33.66952057 -0.08091949 34.88374329 -0.09040833 C42.61858968 -0.04781931 49.45183564 1.09293315 56.85546875 3.30078125 C58.35645866 3.7353791 58.35645866 3.7353791 59.88777161 4.17875671 C76.00504057 8.97963186 92.2433779 18.18504017 104.85546875 29.30078125 C104.85546875 29.96078125 104.85546875 30.62078125 104.85546875 31.30078125 C105.74878906 31.68556641 105.74878906 31.68556641 106.66015625 32.078125 C109.05243246 33.41047812 110.28275074 34.7344673 111.98046875 36.86328125 C114.06450509 39.51103791 114.06450509 39.51103791 116.85546875 41.30078125 C117.35546875 43.86328125 117.35546875 43.86328125 116.85546875 47.30078125 C113.46834997 51.19596785 109.53946476 54.14867498 104.85546875 56.30078125 C104.85546875 56.96078125 104.85546875 57.62078125 104.85546875 58.30078125 C103.3873737 59.61231888 101.85351091 60.850722 100.29296875 62.05078125 C93.47043088 67.37968442 86.95906903 72.76914103 81.1328125 79.203125 C80.52566406 79.85410156 79.91851562 80.50507812 79.29296875 81.17578125 C78.73480469 81.79195313 78.17664063 82.408125 77.6015625 83.04296875 C75.85546875 84.30078125 75.85546875 84.30078125 73.8359375 84.21875 C71.40560883 83.0922663 70.37350114 81.84780274 68.73046875 79.73828125 C63.56654265 73.5616024 57.53492983 68.00635651 49.85546875 65.30078125 C49.85546875 64.64078125 49.85546875 63.98078125 49.85546875 63.30078125 C47.16886092 62.6510392 44.48128201 62.00589707 41.79296875 61.36328125 C41.04080078 61.18087891 40.28863281 60.99847656 39.51367188 60.81054688 C24.51019675 57.23829089 10.73932368 57.57981752 -4.14453125 61.30078125 C-5.01078125 61.51734375 -5.87703125 61.73390625 -6.76953125 61.95703125 C-12.62492471 63.66485434 -17.28293516 66.6724577 -22.14453125 70.30078125 C-22.76328125 70.74164063 -23.38203125 71.1825 -24.01953125 71.63671875 C-35.47078353 80.48076627 -42.3563403 96.89455353 -44.546875 110.8671875 C-44.83021443 113.34737788 -45.01730238 115.80789058 -45.14453125 118.30078125 C-45.18578125 119.07808594 -45.22703125 119.85539062 -45.26953125 120.65625 C-45.64937532 135.20902605 -42.09547246 148.54812111 -35.14453125 161.30078125 C-34.48453125 161.63078125 -33.82453125 161.96078125 -33.14453125 162.30078125 C-32.37109375 163.81671875 -32.37109375 163.81671875 -31.58203125 165.36328125 C-26.04953938 175.25286378 -15.45860452 181.00617003 -4.95703125 184.30078125 C12.53157321 188.84781841 27.63466594 187.63645354 44.85546875 183.30078125 C46.51943341 182.95421164 48.18486997 182.61381258 49.85546875 182.30078125 C49.85546875 181.64078125 49.85546875 180.98078125 49.85546875 180.30078125 C50.92796875 179.86765625 52.00046875 179.43453125 53.10546875 178.98828125 C57.38748873 176.86642162 60.68362724 174.01420089 64.16796875 170.80078125 C64.68327148 170.32600342 65.19857422 169.85122559 65.72949219 169.36206055 C68.39443646 166.84783854 70.77127426 164.31681696 72.85546875 161.30078125 C77.42701291 162.54756602 79.80907002 165.06788064 82.98046875 168.3828125 C85.42429673 170.88264487 88.04196043 173.13574312 90.6875 175.41796875 C93.10389826 177.51653445 95.48075899 179.65517825 97.85546875 181.80078125 C100.92397058 184.56808045 104.00019712 187.32477944 107.10546875 190.05078125 C107.7396875 190.61152344 108.37390625 191.17226562 109.02734375 191.75 C110.82003478 193.30936284 110.82003478 193.30936284 112.68359375 194.6328125 C115.40954242 196.63905977 116.73535618 197.87576753 117.66796875 201.17578125 C116.44642732 205.87401753 113.39862116 208.14551079 109.85546875 211.30078125 C109.07171875 212.12578125 108.28796875 212.95078125 107.48046875 213.80078125 C97.50546875 223.30078125 97.50546875 223.30078125 93.85546875 223.30078125 C93.85546875 223.96078125 93.85546875 224.62078125 93.85546875 225.30078125 C79.49858956 233.56904668 65.8657536 239.93281267 49.85546875 244.30078125 C49.23961914 244.48340515 48.62376953 244.66602905 47.98925781 244.85418701 C45.29025439 245.41907855 42.75030939 245.44378119 39.9921875 245.46191406 C38.80995605 245.47152161 37.62772461 245.48112915 36.40966797 245.49102783 C34.49565186 245.49740265 34.49565186 245.49740265 32.54296875 245.50390625 C31.22312988 245.50960632 29.90329102 245.5153064 28.54345703 245.5211792 C25.7459271 245.53167618 22.94842575 245.53752588 20.15087891 245.54101562 C16.59842685 245.5464668 13.04636459 245.5704268 9.49403381 245.59898758 C6.73646011 245.61779647 3.97897637 245.62282935 1.22134399 245.6243515 C-0.71486888 245.62878119 -2.65103324 245.64734586 -4.5871582 245.6663208 C-16.15436351 245.63757066 -26.29122125 242.99292056 -36.95703125 238.67578125 C-37.81304932 238.33023193 -38.66906738 237.98468262 -39.55102539 237.62866211 C-47.59907588 234.27774791 -54.89425356 230.11291246 -62.14453125 225.30078125 C-62.77101562 224.89085937 -63.3975 224.4809375 -64.04296875 224.05859375 C-71.85262882 218.92653142 -71.85262882 218.92653142 -75.14453125 216.30078125 C-75.14453125 215.64078125 -75.14453125 214.98078125 -75.14453125 214.30078125 C-75.70785156 214.07003906 -76.27117187 213.83929688 -76.8515625 213.6015625 C-85.92442839 208.45460451 -92.57172484 196.88011134 -98.14453125 188.30078125 C-98.97791016 187.01880859 -98.97791016 187.01880859 -99.828125 185.7109375 C-109.2317128 170.64077211 -113.63420741 156.36300061 -113.54296875 138.546875 C-113.54583893 137.28416275 -113.54870911 136.0214505 -113.55166626 134.72047424 C-113.55420718 131.3993009 -113.5422971 128.0785622 -113.52539062 124.75744629 C-113.51758741 122.06842759 -113.53201513 119.37971115 -113.54636192 116.69073391 C-113.55993507 113.43442352 -113.55037606 110.17819484 -113.54296875 106.921875 C-113.54904144 105.73403915 -113.55511414 104.54620331 -113.56137085 103.32237244 C-113.36659726 79.87580101 -100.77955695 58.90456018 -86.14453125 41.30078125 C-85.40332031 40.39457031 -84.66210938 39.48835938 -83.8984375 38.5546875 C-78.63152958 32.38649052 -72.90259571 27.7528561 -66.14453125 23.30078125 C-65.54721191 22.90358887 -64.94989258 22.50639648 -64.33447266 22.09716797 C-51.07909045 13.33776335 -37.62790527 6.2946589 -22.14453125 2.30078125 C-21.24428474 2.04961044 -21.24428474 2.04961044 -20.32585144 1.79336548 C-13.55007453 0.06512092 -6.96412392 -0.00535813 0 0 Z " fill="#017EB2" transform="translate(125.14453125,28.69921875)"/>
<path d="M0 0 C16.96105099 -0.09401897 33.92201906 -0.164258 50.88327217 -0.20724869 C58.76113799 -0.22775288 66.63884061 -0.25563666 74.51660156 -0.30175781 C81.39395901 -0.34200232 88.27119812 -0.36752065 95.14867008 -0.37635398 C98.78022308 -0.38150615 102.41143795 -0.39335121 106.04288101 -0.42292023 C122.79338943 -0.55418795 138.63315086 0.20471454 155 4 C155 4.66 155 5.32 155 6 C156.299375 6.144375 157.59875 6.28875 158.9375 6.4375 C167.31403313 8.04511747 174.6529533 12.85769757 182 17 C182 17.66 182 18.32 182 19 C182.886875 19.226875 183.77375 19.45375 184.6875 19.6875 C188.49627112 21.19663573 190.23265515 23.01978247 193 26 C194.2065625 26.8971875 194.2065625 26.8971875 195.4375 27.8125 C198.88126474 30.75229916 201.58682706 34.16877699 204 38 C204 38.66 204 39.32 204 40 C204.66 40 205.32 40 206 40 C211.17307447 49.05559158 215.71669258 57.29921947 217.5625 67.65625 C217.76226605 69.95071546 217.76226605 69.95071546 219 71 C219.29655878 76.26448136 219.314599 81.53216921 219.35009766 86.80419922 C219.36643586 88.57288982 219.39342057 90.34152083 219.43212891 92.10986328 C219.77670571 107.95140725 217.81957769 122.41968142 209 136 C208.443125 137.010625 207.88625 138.02125 207.3125 139.0625 C206.879375 139.701875 206.44625 140.34125 206 141 C205.34 141 204.68 141 204 141 C203.8453125 141.9590625 203.8453125 141.9590625 203.6875 142.9375 C203.460625 143.618125 203.23375 144.29875 203 145 C202.01 145.33 201.02 145.66 200 146 C198.62665383 148.28891028 197.84749184 150.45752447 197 153 C195.7934375 153.433125 195.7934375 153.433125 194.5625 153.875 C193.716875 154.24625 192.87125 154.6175 192 155 C191.71253906 155.78503906 191.42507813 156.57007813 191.12890625 157.37890625 C189.7317108 160.62291369 188.42846187 161.3656071 185.375 163.0625 C184.0446875 163.81080078 184.0446875 163.81080078 182.6875 164.57421875 C179.15290833 166.44940183 175.60531872 168.2641058 172 170 C164.03258609 164.01390066 156.53454016 157.51290759 149 151 C146.60628169 148.9350327 144.21032997 146.8726912 141.8125 144.8125 C140.9450415 144.06661621 140.9450415 144.06661621 140.06005859 143.30566406 C135.57516055 139.46219154 131.0154721 135.72423732 126.40234375 132.03515625 C123.7873809 129.81987878 121.39242888 127.45213299 119 125 C121.12012304 123.92769759 123.24649325 122.88577142 125.40234375 121.88671875 C130.54900366 119.45216622 134.16759217 117.18080854 138 113 C138.99 112.67 139.98 112.34 141 112 C142.21869929 109.49552484 142.21869929 109.49552484 143 107 C143.66 107 144.32 107 145 107 C147.52122641 88.40255019 147.52122641 88.40255019 142 71 C140.43672306 69.13558189 138.82550563 67.62267167 137 66 C137 65.34 137 64.68 137 64 C134.03 63.01 134.03 63.01 131 62 C131 61.34 131 60.68 131 60 C130.07316406 59.86722656 129.14632812 59.73445313 128.19140625 59.59765625 C126.99386719 59.42105469 125.79632813 59.24445313 124.5625 59.0625 C123.36753906 58.88847656 122.17257812 58.71445313 120.94140625 58.53515625 C118 58 118 58 117 57 C115.52278611 56.92433154 114.04199619 56.91695253 112.56298828 56.9375 C111.61755157 56.946604 110.67211487 56.95570801 109.69802856 56.96508789 C108.14980911 56.98236938 108.14980911 56.98236938 106.5703125 57 C104.39062492 57.00115957 102.21093478 56.99977298 100.03125 56.99609375 C96.58979838 56.99169417 93.15105927 56.99960878 89.70996094 57.05126953 C68.15243384 57.34764653 68.15243384 57.34764653 61.21484375 51.66015625 C59.77677786 50.13737873 58.36825293 48.58580226 57 47 C55.50564618 45.77934569 53.98806945 44.58590092 52.4375 43.4375 C46.30735505 38.69958868 40.26622794 33.85391955 34.265625 28.953125 C32.90637159 27.84360103 31.54699355 26.73422972 30.1875 25.625 C29.50220215 25.06578857 28.8169043 24.50657715 28.11083984 23.93041992 C23.81688995 20.43949837 19.47078792 17.03246579 15.0625 13.6875 C9.83881084 9.70134318 4.67666042 5.62832284 0 1 C0 0.67 0 0.34 0 0 Z " fill="#38BEC0" transform="translate(263,29)"/>
<path d="M0 0 C19.47 0 38.94 0 59 0 C59 80.85 59 161.7 59 245 C37.55 245 16.1 245 -6 245 C-6 166.79 -6 88.58 -6 8 C-5.34 8 -4.68 8 -4 8 C-3.71125 7.05125 -3.4225 6.1025 -3.125 5.125 C-2 2 -2 2 0 0 Z " fill="#027EB2" transform="translate(728,29)"/>
<path d="M0 0 C19.14 0 38.28 0 58 0 C63.26720884 8.77868139 64.88536741 12.10691812 64.77294922 21.47875977 C64.78889381 23.13246582 64.78889381 23.13246582 64.80516052 24.81958008 C64.83312266 28.44399243 64.81915381 32.06693581 64.8046875 35.69140625 C64.81596061 38.24040472 64.82985116 40.78939282 64.84622192 43.33836365 C64.87857615 49.364546 64.88451922 55.39018934 64.87749684 61.41640753 C64.8710718 68.17879935 64.89839145 74.94091211 64.92869925 81.70322335 C64.99037894 95.70576829 65.00590379 109.70805549 65.00016022 123.71071434 C65.00000161 126.96704809 65.00333266 130.22336006 65.00775146 133.47969055 C65.0238408 147.24978426 64.93954404 161.01603112 64.78125 174.78515625 C64.75871032 176.83450695 64.73629271 178.883859 64.71398926 180.93321228 C64.65601056 186.23144907 64.59641587 191.52966638 64.53643799 196.82788086 C64.4642493 203.23610802 64.39415015 209.64435837 64.32368469 216.05260468 C64.21735615 225.70175474 64.10843892 235.35087239 64 245 C42.88 245 21.76 245 0 245 C0 164.15 0 83.3 0 0 Z " fill="#01A6E6" transform="translate(502,29)"/>
<path d="M0 0 C1.24617599 -0.00428513 2.49235199 -0.00857025 3.77629089 -0.01298523 C7.07111832 -0.02016289 10.36576089 -0.01713044 13.6605835 -0.01141357 C16.98147688 -0.01191844 20.30222987 -0.03945257 23.62304688 -0.06054688 C26.18619699 -0.06282071 28.74934908 -0.06352297 31.3125 -0.0625 C32.49101028 -0.07170975 33.66952057 -0.08091949 34.88374329 -0.09040833 C42.61858968 -0.04781931 49.45183564 1.09293315 56.85546875 3.30078125 C58.35645866 3.7353791 58.35645866 3.7353791 59.88777161 4.17875671 C76.00504057 8.97963186 92.2433779 18.18504017 104.85546875 29.30078125 C104.85546875 29.96078125 104.85546875 30.62078125 104.85546875 31.30078125 C105.74878906 31.68556641 105.74878906 31.68556641 106.66015625 32.078125 C109.05243246 33.41047812 110.28275074 34.7344673 111.98046875 36.86328125 C114.06450509 39.51103791 114.06450509 39.51103791 116.85546875 41.30078125 C117.35546875 43.86328125 117.35546875 43.86328125 116.85546875 47.30078125 C113.46834997 51.19596785 109.53946476 54.14867498 104.85546875 56.30078125 C104.85546875 56.96078125 104.85546875 57.62078125 104.85546875 58.30078125 C103.3873737 59.61231888 101.85351091 60.850722 100.29296875 62.05078125 C93.47043088 67.37968442 86.95906903 72.76914103 81.1328125 79.203125 C80.52566406 79.85410156 79.91851562 80.50507812 79.29296875 81.17578125 C78.73480469 81.79195313 78.17664063 82.408125 77.6015625 83.04296875 C75.85546875 84.30078125 75.85546875 84.30078125 73.8359375 84.21875 C71.40560883 83.0922663 70.37350114 81.84780274 68.73046875 79.73828125 C63.56654265 73.5616024 57.53492983 68.00635651 49.85546875 65.30078125 C49.85546875 64.64078125 49.85546875 63.98078125 49.85546875 63.30078125 C47.16886092 62.6510392 44.48128201 62.00589707 41.79296875 61.36328125 C41.04080078 61.18087891 40.28863281 60.99847656 39.51367188 60.81054688 C24.51019675 57.23829089 10.73932368 57.57981752 -4.14453125 61.30078125 C-5.01078125 61.51734375 -5.87703125 61.73390625 -6.76953125 61.95703125 C-18.17477115 65.28355955 -27.70368388 73.54192159 -34.14453125 83.30078125 C-37.46015382 82.19557373 -38.15833907 81.39148451 -40.33203125 78.7734375 C-44.13423204 74.29327076 -48.10967447 70.00889116 -52.14453125 65.73828125 C-52.81742188 65.02220703 -53.4903125 64.30613281 -54.18359375 63.56835938 C-57.94071049 59.58276932 -61.75823447 55.67266193 -65.64404297 51.81274414 C-67.40702758 50.03627754 -69.07533762 48.19828963 -70.70703125 46.30078125 C-71.27679688 45.64078125 -71.8465625 44.98078125 -72.43359375 44.30078125 C-72.99820313 43.64078125 -73.5628125 42.98078125 -74.14453125 42.30078125 C-74.72976562 41.62015625 -75.315 40.93953125 -75.91796875 40.23828125 C-77.32953209 38.59477088 -78.73743287 36.94811594 -80.14453125 35.30078125 C-65.08419873 19.26881437 -43.28439716 7.75372955 -22.14453125 2.30078125 C-21.24428474 2.04961044 -21.24428474 2.04961044 -20.32585144 1.79336548 C-13.55007453 0.06512092 -6.96412392 -0.00535813 0 0 Z " fill="#38BEC0" transform="translate(125.14453125,28.69921875)"/>
<path d="M0 0 C7.45627684 -0.12680254 14.91227555 -0.21435293 22.36938477 -0.2746582 C24.9059488 -0.29979839 27.44244042 -0.33391537 29.97875977 -0.37719727 C33.62534451 -0.43786661 37.27097132 -0.46621574 40.91796875 -0.48828125 C42.05147263 -0.51408768 43.1849765 -0.5398941 44.35282898 -0.56648254 C52.26257918 -0.5692987 52.26257918 -0.5692987 56.07763672 2.37597656 C56.7120166 3.2419043 57.34639648 4.10783203 58 5 C59.96452809 6.71051758 61.93655863 8.39622799 63.9375 10.0625 C65.09410169 11.03343538 66.25033928 12.00480461 67.40625 12.9765625 C68.29570312 13.72341309 68.29570312 13.72341309 69.203125 14.48535156 C72.12946313 16.95206376 75.03367306 19.44436473 77.9375 21.9375 C78.80193726 22.67842896 78.80193726 22.67842896 79.68383789 23.43432617 C82.70026499 26.0208527 85.71089449 28.6138345 88.71484375 31.21484375 C89.93477489 32.26836923 91.15482517 33.32175676 92.375 34.375 C92.9635376 34.88538818 93.5520752 35.39577637 94.15844727 35.92163086 C97.13042895 38.47852422 100.11044253 40.81937763 103.375 43 C108.10870006 46.46270659 110.80972407 51.33661937 113.87988281 56.24462891 C115.89830897 59.40776842 118.05013943 62.47905708 120.1875 65.5625 C121.1293057 66.92811002 122.07070148 68.29400282 123.01171875 69.66015625 C123.49688965 70.36414551 123.98206055 71.06813477 124.48193359 71.79345703 C127.71519802 76.49307811 130.93143686 81.20437755 134.1496582 85.91430664 C136.76539748 89.74072614 139.38611334 93.56341807 142.0234375 97.375 C142.50490234 98.07173828 142.98636719 98.76847656 143.48242188 99.48632812 C144.36480979 100.76226353 145.24873636 102.03713738 146.13476562 103.31054688 C148.7319591 107.06845122 151.21676383 110.8870218 153.66455078 114.74414062 C154.29048126 115.72983032 154.91641174 116.71552002 155.56130981 117.7310791 C156.03607758 118.479823 156.51084534 119.22856689 157 120 C147.31682112 120.44250419 137.63717171 120.77888027 127.94604969 120.98443127 C123.44418004 121.0831589 118.94927415 121.21666087 114.45141602 121.43334961 C85.47853114 122.79301135 85.47853114 122.79301135 78.15197754 118.22384644 C73.80127963 113.95824732 71.33005902 109.12466917 69.10691833 103.51231384 C67.20186559 99.18851666 64.39030177 95.49611736 61.625 91.6875 C56.68074163 84.46294182 51.74479492 77.23273053 46.8125 70 C45.84014404 68.57433716 45.84014404 68.57433716 44.84814453 67.11987305 C44.24470215 66.23468994 43.64125977 65.34950684 43.01953125 64.4375 C42.48432861 63.65246094 41.94912598 62.86742187 41.39770508 62.05859375 C40.25670726 60.37808832 39.12673449 58.69010174 38 57 C35.18086907 56.67453222 32.57033089 56.53498068 29.74609375 56.5234375 C28.93004166 56.50785797 28.11398956 56.49227844 27.27320862 56.47622681 C24.66131559 56.4286047 22.0496912 56.40090841 19.4375 56.375 C16.82192704 56.33856273 14.20650816 56.29799062 11.59107971 56.25234985 C9.9618884 56.22503446 8.33258388 56.20372205 6.70323181 56.18881226 C1.11064685 56.11064685 1.11064685 56.11064685 0 55 C-0.0935919 53.28134591 -0.11744611 51.55884256 -0.11352539 49.83764648 C-0.11344986 48.73658066 -0.11337433 47.63551483 -0.11329651 46.50108337 C-0.10813522 45.3031868 -0.10297394 44.10529022 -0.09765625 42.87109375 C-0.0962413 41.65172623 -0.09482635 40.4323587 -0.09336853 39.17604065 C-0.08774967 35.2631693 -0.07519396 31.35035419 -0.0625 27.4375 C-0.05748743 24.79231853 -0.0529241 22.14713617 -0.04882812 19.50195312 C-0.03777411 13.00128274 -0.02101764 6.50064539 0 0 Z " fill="#027EB2" transform="translate(330,154)"/>
<path d="M0 0 C0.66 0 1.32 0 2 0 C3.46289062 1.46655273 3.46289062 1.46655273 5.15625 3.49609375 C8.81968318 7.8032824 12.62592399 11.94479653 16.5 16.0625 C17.12519531 16.73087891 17.75039063 17.39925781 18.39453125 18.08789062 C22.0261696 21.95637495 25.72654185 25.73993602 29.49072266 29.47924805 C31.21570569 31.21734564 32.84566653 33.01441543 34.4375 34.875 C37.08050998 37.93848884 39.74706066 40.97799244 42.4375 44 C43.11683594 44.763125 43.79617187 45.52625 44.49609375 46.3125 C45.24052734 47.1478125 45.24052734 47.1478125 46 48 C44.9706387 51.43120435 43.75461901 54.54314092 42.0625 57.6875 C38.02042575 65.60574246 36.44990672 74.18464021 36 83 C35.95875 83.77730469 35.9175 84.55460937 35.875 85.35546875 C35.49310104 99.98697255 39.14904075 113.13846583 46 126 C46.66 126.66 47.32 127.32 48 128 C47.01 128 46.02 128 45 128 C44.68095703 128.81210937 44.68095703 128.81210937 44.35546875 129.640625 C42.50981064 132.85324026 39.96036753 135.20551116 37.3125 137.75 C33.25426378 141.72154492 29.38899995 145.74723363 25.70703125 150.07421875 C23.01508745 153.1111256 20.09519025 155.91292137 17.20703125 158.76171875 C14.51241608 161.49448777 12.00639607 164.35839086 9.5078125 167.26953125 C7.76065928 169.27468378 5.91829882 171.15843313 4 173 C5.50038188 176.81915388 7.83265418 178.49946383 11 181 C11 181.66 11 182.32 11 183 C9.35 182.34 7.7 181.68 6 181 C6 180.34 6 179.68 6 179 C5.43667969 178.76925781 4.87335937 178.53851563 4.29296875 178.30078125 C-4.77989714 173.15382326 -11.42719359 161.57933009 -17 153 C-17.83337891 151.71802734 -17.83337891 151.71802734 -18.68359375 150.41015625 C-28.08718155 135.33999086 -32.48967616 121.06221936 -32.3984375 103.24609375 C-32.40130768 101.9833815 -32.40417786 100.72066925 -32.40713501 99.41969299 C-32.40967593 96.09851965 -32.39776585 92.77778095 -32.38085938 89.45666504 C-32.37305616 86.76764634 -32.38748388 84.0789299 -32.40183067 81.38995266 C-32.41540382 78.13364227 -32.40584481 74.87741359 -32.3984375 71.62109375 C-32.40451019 70.4332579 -32.41058289 69.24542206 -32.4168396 68.02159119 C-32.22136889 44.49110252 -19.57581309 23.7129914 -5 6 C-4.55849609 5.43958008 -4.11699219 4.87916016 -3.66210938 4.30175781 C-2.48634702 2.83076377 -1.24745267 1.4107099 0 0 Z " fill="#01A6E6" transform="translate(44,64)"/>
<path d="M0 0 C3.06536082 1.31522319 3.90284723 2.28603759 6 5 C6.875 7.3125 6.875 7.3125 7 9 C7.66 9 8.32 9 9 9 C9 13.62 9 18.24 9 23 C8.34 23 7.68 23 7 23 C6.566875 24.11375 6.566875 24.11375 6.125 25.25 C5 28 5 28 3.87353516 29.83300781 C2.70364157 32.73518096 3.19188092 34.39377539 3.8984375 37.421875 C4.13046875 38.44667969 4.3625 39.47148437 4.6015625 40.52734375 C4.85679687 41.59082031 5.11203125 42.65429688 5.375 43.75 C5.6225 44.82894531 5.87 45.90789062 6.125 47.01953125 C6.73778331 49.6827818 7.36316833 52.3424159 8 55 C8.33 55 8.66 55 9 55 C9 57.64 9 60.28 9 63 C-1.89 63 -12.78 63 -24 63 C-24 57.48273964 -23.54161503 53.35733073 -22.125 48.1875 C-21.76498095 46.77620581 -21.40560468 45.36474748 -21.046875 43.953125 C-20.43785677 41.60851636 -19.78676647 39.30247336 -19.078125 36.984375 C-18.4021622 34.53588751 -17.88522405 32.53941798 -18 30 C-19.19499246 28.26162127 -19.19499246 28.26162127 -20.875 26.75 C-24.31677604 23.419249 -24.58018164 20.73493554 -24.75 16 C-24.51696524 10.38326477 -23.67605557 7.13409768 -19.60546875 3.234375 C-13.65008308 -1.34446167 -7.19243871 -0.76647086 0 0 Z " fill="#0086C9" transform="translate(152,119)"/>
<path d="M0 0 C1.03640625 -0.01224609 2.0728125 -0.02449219 3.140625 -0.03710938 C4.13835937 -0.03904297 5.13609375 -0.04097656 6.1640625 -0.04296875 C7.52072021 -0.04913208 7.52072021 -0.04913208 8.90478516 -0.05541992 C11.53237989 0.20297667 13.08770464 0.92005463 15.375 2.1875 C17.17811093 2.55027195 18.99245648 2.85994512 20.8125 3.125 C24.93014976 3.81310992 27.98325482 4.61445193 31.375 7.1875 C28.23212429 8.75893786 25.40387494 7.25099781 22.1875 6.3125 C6.9589321 1.91818687 -7.35998148 2.37124537 -22.625 6.1875 C-23.49125 6.4040625 -24.3575 6.620625 -25.25 6.84375 C-36.6552399 10.1702783 -46.18415263 18.42864034 -52.625 28.1875 C-53.615 27.8575 -54.605 27.5275 -55.625 27.1875 C-40.99699794 9.09497114 -23.29130467 0.01459355 0 0 Z " fill="#1EB2D1" transform="translate(143.625,83.8125)"/>
<path d="M0 0 C8.88643358 -0.38698985 16.50152712 0.39980499 25 3 C25.94230469 3.26683594 26.88460937 3.53367188 27.85546875 3.80859375 C44.05206063 8.72658724 60.29192165 17.79965976 73 29 C73 29.66 73 30.32 73 31 C73.89332031 31.38478516 73.89332031 31.38478516 74.8046875 31.77734375 C77.19696371 33.10969687 78.42728199 34.43368605 80.125 36.5625 C82.20903634 39.21025666 82.20903634 39.21025666 85 41 C85 41.66 85 42.32 85 43 C81.27430516 41.36259271 79.45586181 39.16054496 76.86328125 36.046875 C65.18661238 23.21967482 49.0934026 14.78206081 33 9 C31.60371172 8.43863027 30.20778188 7.87636649 28.8125 7.3125 C19.51509933 3.90612475 9.77163545 2.3396597 0 1 C0 0.67 0 0.34 0 0 Z " fill="#20B3D1" transform="translate(157,29)"/>
<path d="M0 0 C3.52218461 0.55645625 5.99402504 1.41615251 9 3.3125 C14.65501949 6.60408495 20.72582795 8.26417806 27 10 C27 10.66 27 11.32 27 12 C28.94326172 12.20109375 28.94326172 12.20109375 30.92578125 12.40625 C35.71228308 12.93756386 40.43995296 13.70010667 45.1875 14.5 C53.12353403 15.80190148 60.96077507 16.61967778 69 17 C69 17.33 69 17.66 69 18 C64.75013521 18.08842548 60.50051254 18.14086428 56.25 18.1875 C55.06277344 18.21263672 53.87554687 18.23777344 52.65234375 18.26367188 C40.82517547 18.36061588 30.75068085 15.63713201 19.875 11.1875 C19.01551758 10.84001709 18.15603516 10.49253418 17.27050781 10.13452148 C11.22619775 7.636688 5.23707391 4.98293252 0 1 C0 0.67 0 0.34 0 0 Z " fill="#0192CB" transform="translate(68,256)"/>
<path d="M0 0 C0 0.33 0 0.66 0 1 C-0.59353271 1.1139209 -1.18706543 1.2278418 -1.79858398 1.34521484 C-25.26166932 5.93239523 -44.82980991 12.54213102 -64.20385742 26.6940918 C-66.06680484 28.0485713 -67.95277068 29.36691385 -69.83984375 30.6875 C-72.54962481 32.67043002 -74.23346901 34.19433314 -76 37 C-76.495 35.515 -76.495 35.515 -77 34 C-60.42287915 19.01558292 -40.63667534 7.74859598 -19 2 C-18.18917969 1.77441406 -17.37835938 1.54882812 -16.54296875 1.31640625 C-10.99938466 -0.09133402 -5.70027768 -0.21420668 0 0 Z " fill="#1FB2D1" transform="translate(122,29)"/>
<path d="M0 0 C4.57154416 1.24678477 6.95360127 3.76709939 10.125 7.08203125 C12.56756123 9.58056784 15.18360812 11.83264169 17.828125 14.11328125 C20.26786288 16.23269384 22.66579524 18.39457161 25.0625 20.5625 C28.98932963 24.10696445 32.96518552 27.57917903 37 31 C36.34 31.66 35.68 32.32 35 33 C34.56131592 32.58637207 34.12263184 32.17274414 33.6706543 31.74658203 C31.67837396 29.87047194 29.68297841 27.99770793 27.6875 26.125 C26.99720703 25.47402344 26.30691406 24.82304687 25.59570312 24.15234375 C24.59506836 23.21455078 24.59506836 23.21455078 23.57421875 22.2578125 C22.65515747 21.39373779 22.65515747 21.39373779 21.7175293 20.51220703 C19.86632011 18.81445712 19.86632011 18.81445712 17 17 C17 16.34 17 15.68 17 15 C16.45859375 14.77570313 15.9171875 14.55140625 15.359375 14.3203125 C12.26467706 12.58851134 9.82074395 10.28380732 7.25 7.875 C6.74339844 7.40707031 6.23679688 6.93914062 5.71484375 6.45703125 C4.47280859 5.30873459 3.23588506 4.15491328 2 3 C-0.56257929 5.01527345 -2.97395667 6.97323325 -5.25 9.3125 C-10.25774703 14.2064346 -15.34804547 18.62262893 -22 21 C-22 20.34 -22 19.68 -22 19 C-20.14695271 17.86758221 -18.29217225 16.73792179 -16.4296875 15.62109375 C-10.08694668 11.38920076 -4.6301746 6.03197058 0 0 Z " fill="#0185C0" transform="translate(198,190)"/>
<path d="M0 0 C0.66 0 1.32 0 2 0 C-1.37786231 7.12590132 -6.63936368 11.71019846 -12.75 16.4375 C-13.32919189 16.88689941 -13.90838379 17.33629883 -14.50512695 17.79931641 C-18.74147183 21 -18.74147183 21 -21 21 C-21 21.66 -21 22.32 -21 23 C-23.49597691 24.44487984 -25.99640613 25.88092372 -28.5 27.3125 C-29.19609375 27.71662109 -29.8921875 28.12074219 -30.609375 28.53710938 C-35.28961519 31.20224615 -39.91189742 33.22947782 -45 35 C-44.67 34.01 -44.34 33.02 -44 32 C-42.09830335 31.26615895 -40.19205908 30.54183341 -38.26416016 29.87988281 C-34.42469204 28.38781433 -31.10839538 26.14353166 -27.6875 23.875 C-26.94765869 23.38854004 -26.20781738 22.90208008 -25.44555664 22.40087891 C-16.45858903 16.41087175 -8.45690362 10.04218007 -1.55859375 1.65234375 C-1.04425781 1.10707031 -0.52992188 0.56179687 0 0 Z " fill="#0098D5" transform="translate(240,231)"/>
<path d="M0 0 C-12.31578461 4.25129851 -22.80579703 7.4018539 -36 7 C-36 6.67 -36 6.34 -36 6 C-34.70582153 5.73521851 -34.70582153 5.73521851 -33.38549805 5.46508789 C-30.18158046 4.80867656 -26.97800932 4.15062294 -23.7746582 3.49145508 C-22.38872571 3.20661669 -21.00265876 2.92243168 -19.61645508 2.63891602 C-17.62285135 2.23105226 -15.62974453 1.8208336 -13.63671875 1.41015625 C-12.43748779 1.16402588 -11.23825684 0.91789551 -10.00268555 0.66430664 C-2.91330696 -0.90412975 -2.91330696 -0.90412975 0 0 Z " fill="#0097D6" transform="translate(195,267)"/>
<path d="M0 0 C0 2 0 2 -1.609375 3.65625 C-2.66898438 4.56890625 -2.66898438 4.56890625 -3.75 5.5 C-4.44609375 6.1084375 -5.1421875 6.716875 -5.859375 7.34375 C-7.84460792 8.87976963 -9.71872045 9.9723966 -12 11 C-12 11.66 -12 12.32 -12 13 C-13.51227067 14.3302109 -15.08669024 15.59027591 -16.6875 16.8125 C-20.39176009 19.69709402 -23.79218798 22.57833384 -27 26 C-27.66 25.67 -28.32 25.34 -29 25 C-24.19176547 20.09159392 -19.34437636 15.30643351 -14.12109375 10.83984375 C-10.7093703 7.88050352 -7.41312759 4.79328704 -4.1015625 1.72265625 C-2 0 -2 0 0 0 Z " fill="#21B3D2" transform="translate(242,74)"/>
<path d="M0 0 C3.45201639 1.47721422 5.64961936 3.43794001 8.25 6.125 C8.95640625 6.84945312 9.6628125 7.57390625 10.390625 8.3203125 C11.18726563 9.15175781 11.18726563 9.15175781 12 10 C15.45201639 8.52278578 17.64961936 6.56205999 20.25 3.875 C21.30960938 2.78832031 21.30960938 2.78832031 22.390625 1.6796875 C22.92171875 1.12539062 23.4528125 0.57109375 24 0 C24.66 0.33 25.32 0.66 26 1 C24.85741724 2.14258276 23.7132263 3.28358799 22.5625 4.41796875 C21.43240031 5.56219469 20.3315669 6.73557482 19.25 7.92578125 C18.651875 8.56902344 18.05375 9.21226563 17.4375 9.875 C16.87933594 10.49117187 16.32117188 11.10734375 15.74609375 11.7421875 C14 13 14 13 12.0078125 12.93359375 C9.47545478 11.75609668 8.21688555 10.33311256 6.4375 8.1875 C5.56931641 7.15689453 5.56931641 7.15689453 4.68359375 6.10546875 C3.0796375 4.09959307 1.52675618 2.06506535 0 0 Z " fill="#1FB4D0" transform="translate(187,100)"/>
<path d="M0 0 C5.02518791 0.67307458 9.97164705 1.54398845 14.9375 2.5625 C15.62134766 2.70107422 16.30519531 2.83964844 17.00976562 2.98242188 C18.67353986 3.31983064 20.33682315 3.65965879 22 4 C20 6 20 6 17.93359375 6.08203125 C12.08882128 5.45090558 6.355782 4.54979143 1 2 C0.67 1.34 0.34 0.68 0 0 Z " fill="#0178C4" transform="translate(117,213)"/>
<path d="M0 0 C6.2054142 0.48320848 11.99945246 1.33318124 18 3 C17.67 3.99 17.34 4.98 17 6 C11.07136283 4.83348574 5.61201606 3.24480642 0 1 C0 0.67 0 0.34 0 0 Z " fill="#009ED4" transform="translate(90,267)"/>
<path d="M0 0 C0.99 0 1.98 0 3 0 C4.75390625 1.86328125 4.75390625 1.86328125 6.5625 4.3125 C7.16191406 5.11300781 7.76132813 5.91351563 8.37890625 6.73828125 C9.61925218 8.46878798 10.81898198 10.22847297 12 12 C8.35865951 10.49917723 6.31243814 8.39379438 3.75 5.4375 C3.04359375 4.63183594 2.3371875 3.82617188 1.609375 2.99609375 C0 1 0 1 0 0 Z " fill="#0187BE" transform="translate(89,192)"/>
<path d="M0 0 C0.33 0.99 0.66 1.98 1 3 C0.05125 3.28875 -0.8975 3.5775 -1.875 3.875 C-5.05211578 4.76825109 -5.05211578 4.76825109 -7 7 C-7.66 5.68 -8.32 4.36 -9 3 C-6.03 2.01 -3.06 1.02 0 0 Z " fill="#29AEC0" transform="translate(391,150)"/>
<path d="M0 0 C2.86867231 1.38264837 5.56024032 2.92148553 8.25 4.625 C8.95640625 5.07101563 9.6628125 5.51703125 10.390625 5.9765625 C10.92171875 6.31429687 11.4528125 6.65203125 12 7 C9 8 9 8 6.9921875 7.109375 C6.29351562 6.66078125 5.59484375 6.2121875 4.875 5.75 C4.17117187 5.31171875 3.46734375 4.8734375 2.7421875 4.421875 C1 3 1 3 0 0 Z " fill="#0186BC" transform="translate(101,204)"/>
<path d="M0 0 C0.66 0 1.32 0 2 0 C0.54955729 4.10958767 -1.51110752 7.43258745 -4 11 C-4.33 9.68 -4.66 8.36 -5 7 C-4.34 7 -3.68 7 -3 7 C-2.690625 6.030625 -2.38125 5.06125 -2.0625 4.0625 C-1 1 -1 1 0 0 Z " fill="#0D84B5" transform="translate(727,30)"/>
<path d="M0 0 C0.48210938 0.42152344 0.96421875 0.84304687 1.4609375 1.27734375 C2.09257813 1.82519531 2.72421875 2.37304688 3.375 2.9375 C4.00148438 3.48277344 4.62796875 4.02804688 5.2734375 4.58984375 C6.95632334 6.06958624 6.95632334 6.06958624 9 7 C9 7.66 9 8.32 9 9 C6.525 8.01 6.525 8.01 4 7 C4 6.34 4 5.68 4 5 C2.68 4.34 1.36 3.68 0 3 C0 2.01 0 1.02 0 0 Z " fill="#009CD5" transform="translate(46,238)"/>
<path d="M0 0 C1.48199902 0.44909061 2.96055236 0.90956564 4.4375 1.375 C5.26121094 1.63023438 6.08492187 1.88546875 6.93359375 2.1484375 C9 3 9 3 10 5 C8.51793505 4.745504 7.03931385 4.47088238 5.5625 4.1875 C4.73878906 4.03667969 3.91507813 3.88585937 3.06640625 3.73046875 C2.38449219 3.48941406 1.70257813 3.24835938 1 3 C0.67 2.01 0.34 1.02 0 0 Z " fill="#20B3CF" transform="translate(165,87)"/>
</svg>
